<?xml version="1.0" encoding="UTF-8"?><svg id="uuid-270675ec-bf7e-41d5-9c9d-ae20c217506a" xmlns="http://www.w3.org/2000/svg" width="1024" height="1024" viewBox="0 0 1024 1024">
    <metadata>
        MIT License

        Copyright © 2026-present cnpxs1

        Permission is hereby granted, free of charge, to any person obtaining a copy
        of this software and associated documentation files (the "Software"), to deal
        in the Software without restriction, including without limitation the rights
        to use, copy, modify, merge, publish, distribute, sublicense, and/or sell
        copies of the Software, and to permit persons to whom the Software is
        furnished to do so, subject to the following conditions:

        The above copyright notice and this permission notice shall be included in all
        copies or substantial portions of the Software.

        THE SOFTWARE IS PROVIDED "AS IS", WITHOUT WARRANTY OF ANY KIND, EXPRESS OR
        IMPLIED, INCLUDING BUT NOT LIMITED TO THE WARRANTIES OF MERCHANTABILITY,
        FITNESS FOR A PARTICULAR PURPOSE AND NONINFRINGEMENT. IN NO EVENT SHALL THE
        AUTHORS OR COPYRIGHT HOLDERS BE LIABLE FOR ANY CLAIM, DAMAGES OR OTHER
        LIABILITY, WHETHER IN AN ACTION OF CONTRACT, TORT OR OTHERWISE, ARISING FROM,
        OUT OF OR IN CONNECTION WITH THE SOFTWARE OR THE USE OR OTHER DEALINGS IN
        THE SOFTWARE.
    </metadata>
    <defs><style>.uuid-548eb4da-56ba-4235-8a52-d8c441438a17{fill:#00538d;}.uuid-d174b8e7-c40b-43fc-aaaa-ff8e968c2fdc{fill:#004984;}.uuid-05a6c083-3b60-44b6-9ed4-3c82396f3f05{fill:#16c19e;}.uuid-0eea095d-4788-4c16-a6d1-78379fa550e1{fill:#18c29f;}</style></defs><rect class="uuid-548eb4da-56ba-4235-8a52-d8c441438a17" x="109.2761" y="153.3808" width="71.0854" height="71.0854"/><rect class="uuid-548eb4da-56ba-4235-8a52-d8c441438a17" x="181.0676" y="224.4662" width="71.7915" height="71.7915"/><rect class="uuid-0eea095d-4788-4c16-a6d1-78379fa550e1" x="767.5807" y="94.4765" width="75.793" height="75.793"/><rect class="uuid-0eea095d-4788-4c16-a6d1-78379fa550e1" x="735.2451" y="209.8136" width="63.7738" height="63.7738"/><rect class="uuid-0eea095d-4788-4c16-a6d1-78379fa550e1" x="788.9122" y="284.4592" width="49.8716" height="53.2258"/><rect class="uuid-0eea095d-4788-4c16-a6d1-78379fa550e1" x="849.17" y="268.5414" width="72.38" height="69.1435"/><rect class="uuid-548eb4da-56ba-4235-8a52-d8c441438a17" x="846.9339" y="173.859" width="74.6161" height="73.6746"/><rect class="uuid-548eb4da-56ba-4235-8a52-d8c441438a17" x="783.2925" y="728.3014" width="70.7911" height="70.7911"/><rect class="uuid-548eb4da-56ba-4235-8a52-d8c441438a17" x="855.2752" y="799.0925" width="70.0261" height="70.0261"/><rect class="uuid-548eb4da-56ba-4235-8a52-d8c441438a17" x="105.3482" y="782.4686" width="73.8364" height="73.8364"/><rect class="uuid-05a6c083-3b60-44b6-9ed4-3c82396f3f05" x="184.5248" y="859.262" width="76.7051" height="74.5867"/><rect class="uuid-05a6c083-3b60-44b6-9ed4-3c82396f3f05" x="228.8354" y="757.9006" width="62.9353" height="62.9353"/><rect class="uuid-05a6c083-3b60-44b6-9ed4-3c82396f3f05" x="189.0853" y="694.4358" width="49.1654" height="52.2548"/><rect class="uuid-05a6c083-3b60-44b6-9ed4-3c82396f3f05" x="106.5251" y="694.4358" width="71.4384" height="68.3196"/><path class="uuid-05a6c083-3b60-44b6-9ed4-3c82396f3f05" d="M165.2823,670.6034h-24.4209c-22.1146-42.0837-33.0785-94.5065-33.6891-156.5291l24.4797,24.7004c1.8095,37.6464,10.6363,87.7828,33.6302,131.8286Z"/><path class="uuid-05a6c083-3b60-44b6-9ed4-3c82396f3f05" d="M254.242,200.2806l17.5359,16.006c56.0009-47.6403,122.5752-79.6768,201.6047-86.0616l28.1282-25.6566c-93.1819.9709-180.0673,34.5423-247.2688,95.7122Z"/><path class="uuid-05a6c083-3b60-44b6-9ed4-3c82396f3f05" d="M862.8369,361.5174h26.0391c20.0811,40.2356,32.6785,93.9142,33.3508,154.7195l-25.3624-25.9215c-2.6481-51.5192-15.6235-90.3572-34.0274-128.7981Z"/><path class="uuid-05a6c083-3b60-44b6-9ed4-3c82396f3f05" d="M765.0357,808.6255l16.8151,15.8883c-63.6267,59.4781-151.8949,98.9046-251.1673,102.0969l28.29-26.1715c81.7463-8.3379,149.4975-40.5388,206.0623-91.8137Z"/><path class="uuid-d174b8e7-c40b-43fc-aaaa-ff8e968c2fdc" d="M385.9824,424.2025l46.4114,45.5597,150.4271-148.6687c.538-.5317,1.4036-.5321,1.942-.0007l248.0628,244.8096c28.1282,28.6872,28.3047,80.5889-6.2965,115.4549l46.076,41.6626c60.552-54.8146,63.3766-150.8505,5.2962-207.9894l-288.0794-285.9282c-1.9377-1.9232-5.0636-1.9243-7.0026-.0024l-196.8371,195.1026Z"/><path class="uuid-d174b8e7-c40b-43fc-aaaa-ff8e968c2fdc" d="M599.9005,562.6366l46.7822,45.5464-196.7957,194.8918c-2.1727,2.1517-5.6747,2.1465-7.8411-.0115L146.0545,508.2045c-51.6075-56.9625-48.5475-147.9376,11.3131-209.2252l49.3464,45.5845c-37.1213,34.7691-38.4159,87.8477-8.6401,120.0509l248.8003,246.8524c.6186.6137,1.6159.615,2.2361.0029l150.7902-148.8334Z"/><path class="uuid-d174b8e7-c40b-43fc-aaaa-ff8e968c2fdc" d="M466.0486,501.3926l116.2679-113.7479c.8507-.8323,2.2121-.8274,3.0568.011l219.3218,217.6725c1.2015,1.1925,1.2026,3.1351.0023,4.3289l-281.6364,280.1243c-55.2908,49.9665-141.2053,45.4943-191.1216-2.6521l-49.9519-48.5809,49.5626-48.6064,45.7533,45.7294c29.1203,27.6068,75.4611,27.8716,103.6261,1.6706l230.5825-228.5625c.6425-.6368.6432-1.6751.0017-2.3129l-128.9908-128.2306c-.4964-.4934-1.2965-.4984-1.7989-.0111l-31.8122,30.8541c-.5538.5372-.5535,1.426.0007,1.9628l18.7813,18.1905c.5381.5212.541,1.3835.0063,1.9083l-117.2874,115.1146c-.9138.8968-2.3793.8906-3.2854-.014l-219.4285-219.0538c-1.6087-1.6059-1.6054-4.2136.0072-5.8155L511.6396,139.3315c52.9756-45.2963,131.3578-42.3835,181.7663.2207l51.0632,49.4302-48.6505,47.7531-45.7974-44.3415c-26.3251-22.6835-67.0462-23.1837-94.0048-2.117l-235.5423,233.5206c-.5483.5436-.5497,1.4294-.0031,1.9747l128.8589,128.5557c.6865.6848,1.7945.6953,2.4937.0234l32.3146-31.0495c.5481-.5266.556-1.4009.0176-1.9374l-18.1159-18.0495c-.5332-.5313-.5293-1.3959.0088-1.9223Z"/></svg>